# xmcd
#
# Track frame offsets:
#	150
#	13944
#	26740
#	40553
#	52053
#	62557
#	72994
#	86830
#	97870
#	108541
#	119684
#	130358
#
# Disc length: 1881 seconds
#
# Revision: 1
# Processed by: cddbd v1.5.2PL0 Copyright (c) Steve Scherf et al.
# Submitted via: audiograbber 1.83.01
#
DISCID=a907570c
DTITLE=Johnny Cash - 1974 - The Junkie And The Juicehead Minus Me
DYEAR=1974
DGENRE=Country
TTITLE0=The Junkie And The Juicehead (Minus Me)
TTITLE1=Don't Take Your Guns To Town
TTITLE2=Broken Freedom Song
TTITLE3=I Do Believe
TTITLE4=Ole Slewfoot
TTITLE5=Keep On The Sunny Side
TTITLE6=Father And Daughter(Father And Son)
TTITLE7=Crystal Chandeliers And Burgundy
TTITLE8=Friendly Gates
TTITLE9=Billy and Rex and Oral and Bob
TTITLE10=Jesus
TTITLE11=Lay Back With My Woman
EXTD=
EXTT0=
EXTT1=
EXTT2=
EXTT3=
EXTT4=
EXTT5=
EXTT6=
EXTT7=
EXTT8=
EXTT9=
EXTT10=
EXTT11=
PLAYORDER=
